PathFileType	4	(X/Y/Z)	C:/Users/beibeiliu/ov580/test_trc/User3\sequence.15_training_dense_right.trc
DataRate	CameraRate	NumFrames	NumMarkers	Units	OrigDataRate	OrigDataStartFrame	OrigNumFrames
120	120	22	19	mm	120	30	87
Frame#	Time	ThumbCMC			ThumbMCP			ThumbIP			ThumbTip			IndexMCP			IndexPIP			IndexTip			MiddleMCP			MiddlePIP			MiddleTip			RingMCP			RingPIP			RingTip			PinkyMCP			PinkyPIP			PinkyTip			BackHand1			BackHand2			BackHand3	
		X0	Y0	Z0	X1	Y1	Z1	X2	Y2	Z2	X3	Y3	Z3	X4	Y4	Z4	X5	Y5	Z5	X6	Y6	Z6	X7	Y7	Z7	X8	Y8	Z8	X9	Y9	Z9	X10	Y10	Z10	X11	Y11	Z11	X12	Y12	Z12	X13	Y13	Z13	X14	Y14	Z14	X15	Y15	Z15	X16	Y16	Z16	X17	Y17	Z17	X18	Y18	Z18	
29	0.241667	165.222	38.281	21.406	148.885	37.2485	-2.6696	130.377	40.7273	-28.4404	120.981	40.8128	-48.4884	187.153	29.7637	-53.0928	180.412	1.51787	-49.6989	178.356	5.89709	-16.5654	205.597	23.1265	-51.1295	197.858	-5.15788	-38.1026	191.635	12.6735	-2.03166	223.119	21.5634	-42.024	213.106	-7.99633	-34.0276	203.866	0.46416	-2.86185	243.534	35.6872	-31.9474	249.985	30.771	-56.1062	255.495	23.9462	-75.0569	224.948	56.445	3.19341	225.107	54.2282	36.5539	188.888	59.3594	17.0525	
30	0.25	161.398	33.3663	16.9439	145.466	27.1085	-5.06494	129.451	22.5335	-26.2811	118.128	17.9721	-43.1185	180.941	11.7015	-50.3996	179.958	-17.7353	-38.7887	176.515	-6.72573	-9.33232	203.147	3.78926	-46.4595	194.54	-22.3195	-28.2435	192.618	2.63177	1.48892	220.635	1.03672	-39.5682	209.313	-24.0363	-25.3586	204.205	-6.74124	5.98841	240.295	19.048	-32.7746	244.144	8.58621	-54.6298	248.679	-6.03201	-71.113	224.046	45.6032	-0.231723	221.397	49.5808	28.861	188.834	53.2532	11.0194	
31	0.258333	160.392	30.8553	18.3409	142.697	19.362	-5.19787	126.077	12.643	-23.4208	110.355	5.677	-39.1901	180.863	-5.43914	-42.5692	170.519	-32.6845	-24.2014	172.422	-11.9764	1.71622	198.454	-17.1325	-38.5295	188.382	-36.6102	-15.0328	185.415	-2.50199	9.61944	213.235	-18.8796	-30.1793	203.31	-37.9379	-9.1312	194.482	-17.7405	13.317	239.477	-1.04555	-26.2335	240.368	-17.299	-44.8577	235.41	-41.5187	-55.0446	221.108	33.2211	-3.02775	219.339	47.2581	26.5717	191.975	45.3483	6.6521	
32	0.266667	157.511	35.8333	21.5446	139.355	21.4803	-1.68714	120.449	14.7507	-21.1691	106.42	6.77605	-34.2419	171.358	-14.6781	-34.4295	154.394	-35.4692	-10.3036	159.149	-12.9942	8.99652	187.887	-24.9958	-28.2566	170.503	-41.061	-2.73024	179.399	-7.95539	17.5255	203.574	-30.1916	-19.1919	188.112	-45.7124	2.68487	187.231	-18.1947	24.5212	229.78	-16.6922	-17.3637	231.045	-41.619	-30.9102	211.497	-65.0811	-26.5524	222.521	23.1483	-0.439356	224.218	37.0026	25.2485	193.108	39.4145	2.8699	
33	0.275	158.954	42.3189	23.0532	137.731	35.105	6.34067	117.155	29.4813	-13.3192	100.29	25.5434	-29.6751	150.927	-16.5058	-25.6693	135.369	-29.2764	-1.60824	148.346	-6.10243	18.2219	171.892	-29.2749	-17.0337	150.104	-38.2983	8.13952	162.87	-5.47278	25.2985	182.38	-39.3823	-7.32619	166.646	-45.7515	16.2786	172.346	-19.4471	34.3314	211.88	-32.9874	-9.75645	202.12	-57.3842	-16.0389	177.484	-71.9168	0.113045	215.719	13.5692	1.95696	220.156	29.4608	24.2652	188.817	39.902	7.06972	
34	0.283333	160.285	50.2153	24.0932	137.051	51.0203	4.94719	119.507	47.5969	-10.7868	99.8793	50.6227	-27.5937	139.545	-6.8496	-18.9823	115.298	-11.0761	5.73956	132.785	7.47711	23.2394	144.507	-21.2356	-13.1572	127.884	-25.2299	12.7063	152.654	3.62257	29.4596	159.128	-31.8932	-2.93714	142.382	-37.0131	20.0899	152.066	-7.10892	39.0469	186.841	-36.7094	-2.84321	170.071	-57.636	-6.79145	145.132	-62.6741	5.6764	204.988	6.03801	9.25063	214.897	23.968	30.644	186.955	37.6957	7.88991	
35	0.291667	163.611	59.3707	28.6505	140.69	64.1508	3.88661	121.855	68.5939	-13.9554	107.053	68.8824	-27.8898	122.59	10.1471	-20.1267	104.342	4.17678	2.90831	121.312	22.4443	25.0433	128.235	-10.1019	-11.4303	111.288	-8.06241	15.768	140.929	10.7439	33.2609	142.279	-23.6529	-0.110722	119.751	-18.9543	23.3007	139.652	2.24031	43.3176	164.103	-33.1613	-3.01633	147.655	-46.1482	-7.61134	119.888	-53.8787	-0.495372	193.485	7.14735	8.05987	209.3	19.8071	33.9519	186.84	37.6332	10.7071	
36	0.3	165.992	62.7064	25.6277	149.136	72.0611	6.70607	131.583	79.6214	-20.7478	119.82	87.5021	-32.3921	120.415	22.6648	-21.9957	95.9772	27.0389	-0.736229	117.124	33.0359	23.1042	118.601	8.11693	-14.611	101.558	10.4319	11.0197	134.763	26.4095	31.1464	127.908	-9.61139	-3.02776	107.555	-2.47352	21.6425	128.706	14.8516	39.871	148.673	-27.0378	-0.0813407	125.077	-38.4084	-12.3471	106.66	-41.3468	-16.1339	182.745	5.48773	10.2672	199.078	14.0106	30.7182	186.043	39.1448	14.0927	
37	0.308333	175.689	61.7924	29.1833	165.684	76.2531	3.53183	154.307	86.134	-26.3162	146.489	95.3389	-40.6999	127.075	37.2792	-26.4658	101.271	44.7622	-8.81454	123.964	52.4902	16.9273	118.309	20.3666	-19.5232	100.491	29.4011	5.62831	134.439	33.1867	26.8294	120.439	2.96398	-8.40578	101.617	17.8516	15.3723	124.103	28.8004	33.6483	132.423	-19.8205	-4.40897	112.702	-23.1151	-17.7489	94.0446	-23.0979	-29.445	177.682	0.227538	11.5879	191.889	1.93401	34.1539	185.978	32.29	10.8601	
38	0.316667	192.665	54.7116	28.1587	191.769	67.2192	0.893441	191.244	77.6359	-29.4777	189.56	88.5306	-43.9156	142.416	47.6296	-35.5837	123.531	66.7329	-19.691	142.551	60.293	7.25745	129.66	31.0861	-27.6602	114.387	53.5935	-9.50033	143.992	47.2976	19.6738	122.311	21.5366	-18.4136	106.52	37.479	-0.279044	131.885	41.8326	23.0824	127.967	-6.35102	-9.60806	112.334	-6.28124	-23.1778	98.698	-2.17252	-40.7349	170.541	-2.69341	12.5486	183.306	-3.12666	36.0132	192.995	20.7442	13.0564	
39	0.325	209.374	45.2642	27.9774	213.262	51.7348	-2.09526	219.344	59.0967	-27.6807	226.403	69.9581	-42.5585	172.491	43.7928	-40.1935	154.326	71.9866	-33.6867	165.782	64.6812	-1.01524	151.102	38.5318	-38.6481	137.226	62.967	-19.8765	156.135	49.3467	12.361	134.523	26.8461	-29.0432	125.974	51.2371	-14.9516	147	46.0479	11.5136	135.526	2.23789	-18.8973	121.538	3.61327	-37.0911	110.838	8.35564	-57.0478	167.401	-7.59965	11.9244	175.253	-8.53665	41.8428	199.296	10.7653	15.4905	
40	0.333333	221.284	35.2626	29.6192	231.444	42.1959	5.7376	245.82	48.0899	-18.7983	255.207	53.1665	-36.6741	198.346	32.8629	-43.2831	180.753	61.2232	-40.1355	186.348	54.7136	-4.88865	174.18	26.578	-42.9815	164.652	56.2505	-35.1172	172.408	48.438	4.99173	158.072	16.7594	-35.0137	149.284	46.1125	-30.1784	159.312	43.6954	1.64015	149.481	-4.52106	-24.7131	143.022	-2.33448	-46.5683	137.421	0.682779	-67.5509	179.055	-10.843	11.3431	180.004	-12.3189	41.9158	205.772	3.20136	22.1114	
41	0.341667	230.279	36.563	34.7987	246.488	45.9606	14.1152	261.895	48.9076	-12.2989	275.484	56.6235	-30.4946	228.325	24.839	-41.0611	206.718	50.4178	-44.7961	204.047	51.8223	-12.0649	206.436	16.9683	-46.546	186.673	41.3648	-42.249	186.295	38.2993	-1.90097	189.246	4.19227	-42.1349	176.421	29.3956	-43.2553	177.89	32.2855	-6.15736	181.666	-18.2422	-25.5698	185.228	-16.8131	-52.2287	181.312	-17.7841	-71.8991	201.558	-18.7409	16.4591	195.656	-13.9357	40.9858	226.949	3.82441	29.3568	
42	0.35	230.286	49.1759	34.5557	240.665	63.7893	13.7123	257.057	75.5137	-11.6785	266.96	86.3328	-29.8141	242.352	32.9251	-40.2321	217.345	46.6948	-48.3941	206.824	48.6054	-16.9423	228.821	16.0782	-45.2303	203.128	31.1496	-48.3482	194.783	34.3739	-7.76617	222.272	2.35038	-38.7505	196.156	17.2189	-45.8323	189.203	26.6366	-15.968	221.246	-22.7254	-23.6532	226.747	-23.5105	-45.0467	230.342	-21.7028	-70.0128	231.914	-12.2037	20.4106	221.184	-11.4786	43.8072	243.719	18.2803	30.7254	
43	0.358333	212.008	65.1773	34.8392	214.308	78.8536	11.5426	219.816	96.5601	-11.2923	222.236	107.965	-29.6985	239.933	55.0702	-34.941	205.84	56.2715	-48.1161	196.577	51.1493	-18.8896	237.288	35.4126	-39.406	204.1	37.6102	-48.4686	193.299	34.093	-11.4543	238.139	17.4465	-37.0758	205.731	18.3246	-46.3129	193.705	17.2079	-17.1127	249.84	-2.43082	-22.4723	254.789	2.31766	-42.8364	259.153	2.50835	-66.1566	247.949	12.2394	22.4216	238.555	7.30675	46.0568	239.761	39.6817	35.6436	
44	0.366667	186.997	60.945	29.6522	178.664	75.8934	10.0425	173.82	92.9113	-13.7188	169.475	104.669	-33.7724	211.325	69.9424	-41.4047	186.051	55.0536	-51.9611	181.413	41.0942	-20.2389	219.029	50.6806	-43.5838	193.124	31.9055	-48.9856	186.444	27.3905	-10.4263	228.787	33.6778	-41.8446	201.999	19.1381	-47.9026	192.55	13.4966	-18.2814	247.358	25.9365	-23.203	255.066	28.6545	-46.2108	257.177	34.7685	-66.4542	245.207	37.4541	17.5006	234.196	25.0275	46.8759	219.694	58.0095	34.391	
45	0.375	159.408	46.6538	27.2005	143.628	57.3466	4.35478	129.575	69.5398	-18.3538	119.237	75.9748	-38.3303	179.841	61.0825	-42.3833	159.617	35.6455	-53.7354	161.231	26.556	-19.836	191.249	47.3636	-47.4137	173.769	20.6731	-52.006	175.847	15.1233	-10.9034	207.645	37.3104	-41.3904	189.918	9.99974	-48.3388	182.922	3.75569	-17.0727	233.3	37.0487	-29.228	233.311	40.6368	-46.9264	241.972	44.4208	-71.1471	219.108	48.6161	14.0842	221.611	35.9712	43.9743	189.479	61.1495	26.9005	
46	0.383333	141.02	34.2287	25.4486	126.497	35.5508	3.0277	107.232	40.3977	-23.2027	98.6091	38.797	-38.2287	155.725	38.8778	-47.0238	148.364	7.60199	-51.9325	152.366	7.1857	-16.3396	175.472	27.4537	-49.4604	162.617	-3.20136	-46.3759	166.989	2.59309	-7.87989	191.77	22.5364	-44.0443	179.753	-8.51621	-43.7193	175.477	-8.00653	-10.8904	219.866	30.2778	-33.9678	221.625	30.1658	-56.96	220.67	32.3861	-75.8067	206.925	43.7955	4.5669	207.997	39.7809	35.0262	174.882	52.0959	21.1598	
47	0.391667	138.962	22.0903	27.2308	117.611	15.7888	3.29019	100.223	11.2728	-18.9634	92.7789	4.67279	-39.048	149.104	10.9191	-45.753	146.627	-23.1219	-40.9367	143.7	-13.7274	-9.10952	172.389	-2.01946	-46.7893	160.918	-29.6108	-31.1196	161.534	-8.11726	2.69014	188.534	-2.35167	-39.696	180.439	-33.002	-27.9423	173.54	-22.3628	0.522502	212.192	10.681	-32.6634	211.436	6.35806	-53.4392	214.534	2.37315	-74.3519	200.006	35.6167	4.00232	198.102	38.0415	35.1345	165.674	42.8981	18.8854	
48	0.4	135.512	13.4796	28.3699	117.536	-0.155187	9.81275	101.475	-12.5942	-13.9716	91.9888	-22.9472	-25.4013	152.161	-22.7729	-38.578	142.287	-47.1908	-24.3968	146.275	-31.5673	5.41224	173.011	-29.4857	-34.0474	160.44	-50.7209	-13.7002	160.739	-20.7714	13.8582	186.699	-28.5814	-28.2117	180.043	-52.7701	-10.5343	174.247	-29.3509	18.9364	212.699	-13.0787	-22.6407	217.63	-25.1237	-42.1846	215.098	-36.2778	-60.4108	198.665	21.2354	5.4749	199.47	31.8442	30.4019	164.593	32.2216	14.2368	
49	0.408333	137.938	7.33268	31.6174	118.837	-10.8485	12.9514	101.345	-24.3119	-0.0284057	90.6223	-38.4314	-14.243	151.587	-38.1202	-22.5384	143.314	-60.3874	1.31343	145.353	-34.2141	21.0765	168.261	-43.0323	-19.6652	161.794	-62.8919	9.52037	160.317	-29.7161	25.9338	188.32	-47.9347	-10.8908	175.527	-64.7316	10.281	171.157	-36.4551	33.9226	208.842	-29.8553	-11.1211	215.011	-48.9099	-25.9668	213.727	-63.3581	-40.3635	198.032	9.1138	5.91796	196.378	24.3444	31.0063	165.354	24.1164	14.6775	
50	0.416667	132.77	12.8437	34.954	113.277	-3.08871	22.4871	97.1194	-16.944	7.74382	82.0874	-29.7039	-5.93718	141.743	-40.2609	-14.7682	133.149	-58.5161	11.5745	138.456	-32.1036	30.5883	159.651	-49.5548	-9.61534	150.069	-61.4058	16.6885	159.816	-27.1059	34.6532	181.567	-49.9794	-2.20853	169.926	-64.1233	21.4859	168.289	-34.1606	42.9393	203.542	-36.5182	-5.44793	202.605	-54.5489	-18.8479	207.002	-76.1881	-26.9618	192.606	6.31597	6.38683	196.55	25.4841	30.6709	165.442	24.3221	18.8832	
